<?xml version="1.0" encoding="UTF-8"?>
<svg id="Layer_1" xmlns="http://www.w3.org/2000/svg" version="1.1" viewBox="0 0 396 396">
  <!-- Generator: Adobe Illustrator 29.3.1, SVG Export Plug-In . SVG Version: 2.1.0 Build 151)  -->
  <defs>
    <style>
      .st0 {
        fill: #2b5ca3;
        fill-rule: evenodd;
      }
    </style>
  </defs>
  <path class="st0" d="M246.3,215.3c12.5,8.9,22.9,20.5,29.2,35.2,5,11.8,6.9,24.7,5.2,37.4-1.6,12.3-6.4,24-13.8,34-2.3,3-4.7,5.8-7.3,8.4,17.1-.4,33.4-6.9,44.2-21.4,5.2-6.9,8.6-15.1,9.7-23.7,1.1-8.9-.2-18-3.7-26.2-10.6-24.9-37.5-37.7-63.5-43.7h0ZM229.4,348.2c-12.6,3.9-26.3,4.8-39.9,2.7-1.1,0-2.3-.2-3.5-.4-72.5-12.4-125.6-75.7-125.6-149.3S115.7,62,190,51.2l4.1-.6h0c12.1-1.1,24.2-.2,35.5,3.5,4.7-1.2,9.6-2.1,14.5-2.8l4.1-.6h0c19.9-2,39.8,2.1,56.5,13.8,10.7,7.6,19.2,17.8,24.5,29.8,5.3,11.9,7.3,25,5.7,37.9-2.8,22.5-15.8,41.2-34,54.4-8.3,6.1-17.5,10.8-27.2,14.6,23.9,9.3,45.5,25.2,55.8,49.4,5,11.8,6.9,24.7,5.2,37.4-1.6,12.3-6.4,24-13.8,34-18.2,24.3-48,33.4-77.4,29-1.1,0-2.3-.2-3.5-.4-3.7-.6-7.3-1.4-10.9-2.3h0ZM259.5,71.9c6.6,6.4,11.9,14,15.6,22.4,5.3,11.9,7.3,25,5.7,37.9-2.8,22.5-15.8,41.2-33.9,54.4l-.5.4c4.7-1.1,9.3-2.3,13.9-3.9,10-3.3,19.6-7.9,28.1-14,13.2-9.6,23.1-23,25.2-39.5,1.1-9-.2-18.2-3.9-26.4-3.7-8.4-9.7-15.6-17.2-21-9.8-6.9-21.2-10-32.8-10.2h0ZM182.5,327.5c-41.2-27.4-67.8-74.3-67.8-126.3s26.6-99,67.9-126.4c-56,13-96.8,61.7-100,119v14.6c3.2,57.3,44,106,100,119h0,0ZM229,76.9c-52,15.5-89.2,62.3-92.3,117v14.6c3.1,54.6,40.2,101.4,92.1,116.9,8-3.5,15.2-8.9,20.9-16.4,5.2-6.9,8.6-15.1,9.7-23.7,1.1-8.9-.2-18-3.7-26.2-13.1-30.7-50.8-43-81.2-46.9-16.1-.2-15.3-21.3-1.8-21.9,11.3-1.3,22.6-3.6,33.3-7.2,10-3.3,19.6-7.9,28.1-14,13.2-9.6,23.1-23,25.2-39.5,1.1-9-.2-18.2-3.9-26.4-3.7-8.4-9.7-15.6-17.2-21-2.9-2.1-6-3.8-9.2-5.2h0Z"/>
</svg>