<?xml version="1.0" encoding="UTF-8"?>
<svg id="Layer_1" data-name="Layer 1" xmlns="http://www.w3.org/2000/svg" viewBox="0 0 5062 5339">
  <defs>
    <style>
      .cls-1 {
        fill: #295ba2;
        fill-rule: evenodd;
      }
    </style>
  </defs>
  <path class="cls-1" d="M2132.03,2798.02c823.85,103.47,1272.18,449.71,1438.01,836.64,67.63,157.88,88.01,322.37,67.63,479.34-20.38,156.97-81.36,306.43-176.88,433.78-98.63,131.8-234.83,240.1-401.52,308.68-920.67-266.18-1583.1-1091.33-1636.57-2058.42v-252.93c53.55-967.96,717.28-1794.01,1639.68-2059.33,68.58,28.29,131.8,63.69,189.23,104.37,140.18,99.06,247.61,232.59,314.38,382.95,66.33,149.46,92.84,316.19,71.6,483.78-31.87,255.13-175.15,513.41-454.55,716.37-133.96,97.29-298.92,182.19-497.04,248.09-169.37,56.61-363.52,99.92-583.67,125.58-155.2,5.31-170.66,251.16,29.19,251.16l.52-.04ZM3039.83,2798.02h16.84c823.85,103.47,1272.18,449.71,1438.01,836.64,67.63,157.88,88.01,322.37,67.63,479.34-20.38,156.97-81.36,306.43-176.88,433.78-194.15,258.67-531.93,426.74-962.21,382.95,90.17-68.1,168.93-147.69,234.4-235.26,120.74-161.42,198.55-351.12,224.21-550.11,25.65-198.99,0-407.7-84.9-606.68-122.04-285.66-366.54-551.89-756.58-740.25l-.52-.39ZM3422.78,410.58c303.75-30.96,560.69,42.45,753.47,179.08,140.17,99.06,247.61,232.59,314.37,382.95,66.33,149.02,92.84,316.19,71.6,483.78-31.87,255.6-175.15,513.41-454.55,716.37-133.96,97.29-298.92,182.19-496.61,248.09-167.55,56.14-359.54,98.63-576.58,124.71,109.25-52.17,206.51-110.55,293.22-173.34,340.03-247.18,514.75-566.44,554.48-886.17,26.51-211.82-7.08-423.63-91.98-613.77-79.63-178.65-204.78-338.73-367.92-461.67l.52-.04ZM3639.48,2670.2c16.84-5.31,33.59-10.62,50.01-16.37,223.78-74.75,410.33-171.14,563.37-282.12,340.03-247.18,514.75-566.44,554.48-886.17,26.51-211.81-7.08-423.63-91.98-613.77-84.04-189.27-219.81-357.3-397.55-483.31-253.83-179.99-592.99-271.97-989.16-214.92v-.43c-88.01,12.83-174.2,30.06-259.1,51.74-195.45-64.99-419.22-87.1-665.54-51.3v-.43C1171.11,351.33,245.6,1413.47,245.6,2670.2s898.13,2282.2,2092.5,2486.93c17.27,3.11,35.84,5.31,55.27,6.65,249.43,37.57,475.8,16.37,673.49-48.63,64.6,16.37,129.55,30.53,196.31,42.02,17.27,3.11,35.84,5.31,55.28,6.65,562.51,85.33,1009.11-130.03,1264.24-469.62,120.74-161.42,198.13-351.12,224.21-550.11,25.65-198.99,0-407.7-84.9-606.68-153.04-358.17-498.77-685.41-1082.09-867.6l-.43.39Z"/>
</svg>